<?xml version="1.0" encoding="UTF-8"?><svg id="Layer_2" xmlns="http://www.w3.org/2000/svg" viewBox="0 0 302.83 276"><defs><style>.cls-1{fill:#d3aca7;}</style></defs><g id="Layer_1-2"><path class="cls-1" d="M216.56,30.06c-.5-.17-1.05-.12-1.52,.12-.47,.25-.81,.68-.96,1.19-1.15,4.16-2.65,11.84-4.18,21.16-5.33-14.85-13.69-27.06-19.56-31.99C183.38,14.7,167.12,1.07,150.58,.03c-.64-.12-1.29,.07-1.76,.55-1.13,1.13-.5,2.51,.65,5.02,.79,1.73,1.94,4.1,3.39,7.09,8.27,17.06,25.49,52.55,22.66,67.54,0,.02,0,.04-.01,.06-1.17,7.45-4.07,13.23-7.77,15.46-1.49,.9-3,1.13-4.36,.67-3.66-1.25-5.04-5.9-4.6-15.57,0-.06,0-.12,0-.19-.33-6.29-.01-10.75,.32-15.48,.33-4.62,.66-9.39,.33-15.88,.24-22.93-16.95-35.73-20.4-38.07-2.92-1.98-18.71-11.58-42.25-6.27-.69,.16-1.24,.68-1.43,1.36-.19,.68,0,1.41,.51,1.9,9.8,9.52,28.96,41.7,34.74,58.36,3.99,11.5,4.95,19.39,2.84,23.46-.8,1.55-2.08,2.57-3.91,3.1-1.74,.5-5.32-2.11-10.18-10.96-3.77-6.88-6.58-14.28-7.04-15.76-.16-.51-.47-1.74-.87-3.29-2.2-8.53-7.34-28.51-13.25-36.75-7.06-9.86-12.55-12.47-21.73-10.36-5.68,1.31-8.2,5.24-11.38,10.22-2.04,3.19-4.34,6.8-8.04,10.71-9.17,9.69-30.79,16.51-34.67,17.45-2.71,.66-6.42,1.56-7.07,4.54-.5,2.28,.97,4.64,4.73,7.63,11.38,9.41,37.29,22.88,70.09,39.94,31.94,16.62,68.77,35.78,101.77,56.21-.95,3.97,3.93,10.41,11.55,20,3.99,5.02,8.12,10.22,9.65,13.54,3.27,7.09,11.97,25.93-5.82,52.54-16.4,24.54-44.26,21.93-56.16,20.81l-1.19-.11c-5.75-.52-18.38-3.83-29.37-7.69-16.57-5.82-20.5-9.63-20.61-10.59,.04-.63,1.23-4.72,21.33-23.61,10.39-9.77,20.87-18.82,21.55-19.4,3.07-2.4,17.85-14.31,18.17-21.46,.07-1.49-.44-2.79-1.47-3.75-4.53-4.23-15.74,.92-37.49,17.22l-.64,.48c-.4,.3-.88,.67-1.44,1.09-7.34,5.61-29.67,22.7-50.02,18.22-18.5-4.07-31.14-24.27-37.84-38.27,12.77,3.56,28.26,5.12,42.07-6.23,2.92-2.4,6.93-5.22,11.49-8.1,7.37-.93,13.87-2.29,18.11-3.99,11.82-4.72,16.14-7.36,17.12-10.46,.38-1.22,.2-2.46-.54-3.58-.31-.47-.92-1.06-2.07-1.24-4.7-.71-20.94,7.5-33.81,15.52-12.25,1.47-26.98,1.74-37.24,.3-16.14-2.27-25.34-11.83-28.94-30.1-1.2-6.07-1.19-12.02-1.19-18.32,0-14,.02-28.47-13.65-44.64-.69-.81-1.9-.91-2.71-.23-.81,.69-.91,1.9-.23,2.71,12.76,15.1,12.75,28.24,12.74,42.16,0,6.2,0,12.62,1.26,19.06,3.91,19.83,14.44,30.68,32.18,33.17,8.66,1.22,20.1,1.28,30.81,.45-2.22,1.54-4.19,3-5.77,4.3-10.84,8.91-23.97,10.23-42.56,4.3-.72-.23-1.51-.02-2.02,.55-.51,.56-.64,1.37-.33,2.06,6.38,14.48,20.37,39.5,42.3,44.32,22.11,4.86,45.5-13.04,53.19-18.92,.54-.41,1.01-.77,1.4-1.06l.64-.48c3.53-2.64,10.86-8.14,17.99-12.38,11.89-7.08,14.32-5.32,14.56-5.1,.13,.12,.27,.3,.25,.76-.19,4.2-10.36,13.65-16.73,18.63-.02,.02-.05,.04-.07,.06-.11,.09-11.1,9.56-21.92,19.74-22.46,21.14-22.37,24.76-22.34,26.3,.04,1.64,.15,6.01,22.9,14.04,11.34,4,24.49,7.43,30.59,7.99l1.18,.11c8.57,.8,24.97,2.34,40.14-5.12,7.1-3.49,13.94-8.96,19.58-17.39,7.85-11.74,11.7-23.46,11.47-34.84-.19-9.16-2.96-16.27-5.35-21.45-1.73-3.75-5.81-8.88-10.13-14.32-2.99-3.77-6.09-7.66-8.21-10.9-1.27-1.94-1.93-3.27-2.28-4.16,18.18,11.43,35.06,23.24,49.13,35.21,.01,.01,.03,.02,.04,.03,35.56,28.64,53.82,73.82,54,74.28,.39,.99,1.51,1.47,2.5,1.08,.05-.02,.09-.04,.14-.06,.89-.44,1.31-1.5,.94-2.44-.18-.46-18.8-46.55-55.15-75.83-14.12-12-31-23.83-49.16-35.27,3.09-.59,8.45-.21,16,1.15,.6,.11,1.11,.2,1.52,.27,.63,.1,1.6,.36,2.82,.67,5.94,1.54,18.3,4.75,33.52,1.38,11-2.44,18.37-7.54,22.54-15.59,5.12-9.89,5.54-24.22,1.27-43.8-9.2-42.22-43.86-70.95-59.51-76.29ZM99.09,159.61c10.19-5.42,16.03-7.46,18.02-7.65-1.11,2.42-11.39,6.53-14.82,7.9-2.02,.81-4.63,1.54-7.64,2.17,1.46-.82,2.95-1.64,4.43-2.43Zm173.21-52.44c4.07,18.67,3.76,32.15-.93,41.21-3.67,7.08-10.01,11.4-19.96,13.6-14.31,3.17-25.63,.23-31.72-1.35-1.32-.34-2.36-.61-3.16-.75-.39-.07-.89-.15-1.47-.26-7.98-1.44-15.78-2.38-20.17-.22-.2,.1-.39,.2-.58,.31-33.22-20.61-70.3-39.9-102.45-56.62-31.31-16.28-58.34-30.35-69.44-39.52-3.39-2.7-3.4-3.8-3.4-3.8,.21-.46,1.63-1.01,4.22-1.64,4.9-1.19,26.8-8.22,36.56-18.54,3.95-4.17,6.47-8.11,8.49-11.28,2.92-4.57,4.85-7.59,9-8.54,6.77-1.55,10.93-.64,17.74,8.85,5.49,7.65,10.69,27.86,12.65,35.47,.45,1.73,.74,2.87,.92,3.47,.48,1.56,3.42,9.34,7.34,16.48,5.43,9.9,10.21,14.08,14.62,12.81,2.86-.83,4.97-2.52,6.26-5.03,2.68-5.19,1.85-13.6-2.63-26.49-5.59-16.1-22.58-45.09-33.25-57.26,20.6-3.45,34.31,5.3,35.88,6.36,1.94,1.31,18.96,13.45,18.7,34.89,0,.04,0,.08,0,.12,.33,6.29,.01,10.75-.32,15.48-.32,4.61-.66,9.38-.33,15.85-.36,8.22,.23,16.91,7.21,19.29,2.44,.83,5.13,.47,7.59-1.02,4.72-2.85,8.21-9.46,9.58-18.14,3.04-16.26-13.88-51.15-22.98-69.9-1.25-2.58-2.46-5.08-3.27-6.84,14.38,2.18,28.55,14.06,34.82,19.32,6.3,5.28,16.03,20.37,20.67,37.69-.92,6.08-1.81,12.56-2.62,19.02-1.31,10.47-2.23,19.67-2.66,26.6-.78,12.6,.29,14.17,.81,14.92,.44,.65,1.09,1.05,1.81,1.12,1.2,.12,2.32-.22,3.23-1,3.47-2.94,4.16-11.47,5.82-37.99,.48-7.73-.53-15.55-2.44-22.97,1.69-11.1,3.43-20.77,4.79-26.42,6.8,2.91,17.69,10.22,28.79,22.68,9.27,10.4,21.34,27.52,26.25,50.03Zm-61.53-34.39c.41,3.61,.53,7.24,.31,10.84-1.14,18.23-1.98,31.68-4.07,34.84-.46-3.45-.23-14.19,2.81-38.37,.31-2.44,.63-4.88,.95-7.3Zm14.56,26.88c-5.18,3.86-6.45,18.38-5.01,26.29,.82,4.5,2.44,7.14,4.83,7.83,.82,.24,1.98,.33,3.26-.31,1.58-.78,3.37-2.65,4.96-6.7,3.08-7.81,4.81-23.69-2.73-27.53-1.82-.93-3.71-.78-5.32,.41Zm4.47,25.7c-1.48,3.76-2.98,4.89-3.57,4.72-.45-.13-1.48-1.3-2.11-4.81-1.46-8.03,.45-20.23,3.52-22.52,.09-.07,.17-.12,.26-.16,.28-.14,.57-.14,1.01,.09,4.22,2.15,4.08,14.6,.89,22.68Zm-85.98,97.24c-3.39,3.58-4.32,7.96-2.63,12.34,.01,.03,.02,.05,.03,.08,2.21,5.05,8.14,7.06,15.1,5.12,1.27-.35,2.52-.83,3.72-1.42,5.73-2.82,10.28-8.2,9.43-14.76-.44-3.37-2.57-5.84-6.02-6.96-6.04-1.97-14.86,.55-19.64,5.6Zm21.84,1.86c.75,5.76-4.65,10.39-10.37,11.98-3.79,1.05-8.81,.92-10.53-2.92-1.14-2.99-.52-5.77,1.85-8.26,3.73-3.94,11.05-6.09,15.66-4.59,2.04,.66,3.15,1.9,3.39,3.8Z"/></g></svg>